#!OML:ASF F:\VICON\USERDATA\INSTALL\rory3\rory3.ASF
:FULLY-SPECIFIED
:DEGREES
43
root 0.6008912741115797 17.85219109798797 2.234846436183348 -1.0914160855631472 2.0930580673459573 2.186192019261822
lfemur 11.270240285021208 -2.8994753445850145 -26.919775882398525
ltibia 19.931525403770486
lfoot -5.778331143233855 -3.2598653146513907
ltoes -4.986702177159577
rfemur -26.27364163477055 7.656503541120648 16.487107505690656
rtibia 27.74257335911836
rfoot -9.079414240132742 -11.675635608792602
rtoes 2.7774029013162447
lowerback 9.828530784751493 -1.2431651302100686 -3.8568073077859886
upperback 0.42447210451336714 -2.0794671544637495 1.3276764732055835
thorax -4.720116890895366 -0.7336643495977901 3.634703271445323
lowerneck -16.16886005122214 -2.7700440345714337 -2.3779343834684803
upperneck 22.806372156962148 -3.3496310180867788 0.4990935273109929
head 9.814447149857077 -1.605638475844479 0.048430790978487764
lclavicle -1.3860207472445454e-15 -1.8423909088466047e-15
lhumerus -22.57895862317173 -1.3525944616792644 81.24426867634017
lradius 30.35404281274726
lwrist 6.967076143911884
lhand -27.02919742313011 24.39073676887809
lfingers 7.125019999999999
lthumb -0.3750396027218892 54.55548205372545
rclavicle -1.3880244274671079e-15 -1.8442527668611846e-15
rhumerus -35.081438054283666 -26.86386185545052 -74.20606146287514
rradius 24.24935291047686
rwrist 7.453356298978289
rhand -18.519703189084524 22.564686677990196
rfingers 7.125019999999999
rthumb 7.892151296405353 -7.041012293666613
44
root 0.5289838177068112 17.824887043805667 2.710039345775658 -1.126921246465699 2.0746461755594403 1.8197946813443049
lfemur 12.468972921683546 -3.963629097800011 -26.284436230629346
ltibia 22.150376400473938
lfoot -3.996471393242453 -5.375831287712177
ltoes -5.304452940619134
rfemur -26.64375681940573 6.521666043887271 17.351505404928908
rtibia 30.619979443448955
rfoot -8.551054231649104 -10.35341448973736
rtoes 3.518266658988549
lowerback 9.70992286836708 -1.2576605994161694 -3.470484000289855
upperback 0.3602795373252046 -2.019454807252811 1.535212973766447
thorax -4.7804669874796994 -0.7658650689891062 3.5233895863479985
lowerneck -16.201097305312242 -2.6827209272957875 -2.37755162689232
upperneck 22.703774449445863 -3.18805927236051 0.46902388111338345
head 9.763869466098408 -1.5763739997381638 0.027963735891634867
lclavicle -1.386020747080236e-15 -1.8423909086939254e-15
lhumerus -23.47693178672087 -0.5868775149480525 81.60960223777874
lradius 29.43190713112989
lwrist 6.554991214827307
lhand -27.013274622736066 24.50490735337309
lfingers 7.125019999999999
lthumb -0.2747529000991854 54.80226144284986
rclavicle -1.3880244274940642e-15 -1.844252766886233e-15
rhumerus -35.70007602804404 -28.312078020639603 -72.7371125469448
rradius 23.38116384877211
rwrist 8.790940255838393
rhand -18.55516976778097 22.611106186305747
rfingers 7.125019999999999
rthumb 7.834564586473873 -7.006309973594632
45
root 0.4658517799878275 17.83340260117611 3.4855205439361505 -1.3091750101703306 1.883535421668897 1.092194440001308
lfemur 13.206875874126952 -5.457965470877191 -25.373976239455892
ltibia 26.173066832801467
lfoot -3.263895316729223 -7.065057819907975
ltoes -5.458238879665294
rfemur -26.41365033141146 5.409029935788764 19.084792705166784
rtibia 33.20094319243863
rfoot -7.757524490393465 -8.95268447733202
rtoes 4.470083377681093
lowerback 9.58490297868926 -1.2143484946068788 -2.716373699590875
upperback 0.29859500301222097 -1.8535007864635449 1.789506751143152
thorax -4.866607983715552 -0.7274954110427745 3.3582526728628013
lowerneck -16.330556530985064 -2.6318694931139217 -2.391198918307052
upperneck 22.62091401670188 -3.0296368726349123 0.4328221193373672
head 9.715109405765745 -1.573679116479356 -0.011426235638834797
lclavicle -1.386020747057616e-15 -1.842390908672906e-15
lhumerus -24.90432286223296 0.1034351219677263 82.04899815281438
lradius 28.27901235958989
lwrist 6.123677392662589
lhand -27.078770128161207 24.41454462187852
lfingers 7.125019999999999
lthumb -0.41111168479706994 54.62120784754522
rclavicle -1.3880244273236003e-15 -1.8442527667278344e-15
rhumerus -36.210952300440205 -29.91107706027832 -71.12486625649963
rradius 22.665749371330264
rwrist 10.088401734231159
rhand -18.54104419494108 22.65290465079558
rfingers 7.125019999999999
rthumb 7.799896030563035 -7.007476615739917
46
root 0.4103333758147319 17.87658824292672 4.618651804389213 -1.572107692175317 1.6230283500144462 0.06785354245536945
lfemur 12.593668571770737 -6.417570194095859 -23.79503048552608
ltibia 32.45197786615396
lfoot -2.1963220769431295 -7.261399042975677
ltoes -5.014250802580744
rfemur -25.523235803596847 5.029654026040031 20.947833777997268
rtibia 35.21653202379086
rfoot -6.5474568818103 -7.198764855163135
rtoes 5.495743389249862
lowerback 9.443670829914996 -1.1587575478076317 -1.6861806454378403
upperback 0.25166456784265306 -1.5982004327423178 2.0843739497299127
thorax -4.916395894903315 -0.6153121607028407 3.1822396837692413
lowerneck -16.333728421556607 -2.569047071141542 -2.3614674730394096
upperneck 22.48070137293971 -2.9312757236914866 0.38147482682911565
head 9.683148368464366 -1.5732888952084554 -0.019842718741817283
lclavicle -1.3860207471101227e-15 -1.842390908721697e-15
lhumerus -26.556741409711915 0.7061580959303919 82.49168388424458
lradius 27.118558925095957
lwrist 5.676327413326126
lhand -27.07843452492345 24.507912316705042
lfingers 7.125019999999999
lthumb -0.439894378708501 54.6724116236661
rclavicle -1.388024427402405e-15 -1.844252766801061e-15
rhumerus -36.32692840043186 -31.211359992654792 -69.70676761815022
rradius 22.18229788786162
rwrist 10.744279705754188
rhand -18.525090349983753 22.647370651579
rfingers 7.125019999999999
rthumb 7.796138098995139 -7.020806075330852
